<svg xmlns="http://www.w3.org/2000/svg" width="156.24" height="35" viewBox="0 0 156.24 35"><rect class="svg__rect" x="0" y="0" width="77.4" height="35" fill="#000000"/><rect class="svg__rect" x="75.4" y="0" width="80.84" height="35" fill="#C6A713"/><path class="svg__text" d="M15.69 22L14.22 22L14.22 13.47L16.14 13.47L18.60 20.01L21.06 13.47L22.97 13.47L22.97 22L21.49 22L21.49 19.19L21.64 15.43L19.12 22L18.06 22L15.55 15.43L15.69 19.19L15.69 22ZM28.49 22L26.95 22L30.17 13.47L31.50 13.47L34.73 22L33.18 22L32.49 20.01L29.18 20.01L28.49 22ZM30.83 15.28L29.60 18.82L32.07 18.82L30.83 15.28ZM40.17 22L38.69 22L38.69 13.47L44.11 13.47L44.11 14.66L40.17 14.66L40.17 17.20L43.60 17.20L43.60 18.38L40.17 18.38L40.17 22ZM53.84 22L48.27 22L48.27 13.47L53.80 13.47L53.80 14.66L49.75 14.66L49.75 17.02L53.25 17.02L53.25 18.19L49.75 18.19L49.75 20.82L53.84 20.82L53.84 22ZM63.62 22L58.04 22L58.04 13.47L63.58 13.47L63.58 14.66L59.52 14.66L59.52 17.02L63.03 17.02L63.03 18.19L59.52 18.19L59.52 20.82L63.62 20.82L63.62 22Z" fill="#C6A713"/><path class="svg__text" d="M94.13 22L89.59 22L89.59 13.60L93.89 13.60Q95.49 13.60 96.33 14.19Q97.18 14.79 97.18 15.79L97.18 15.79Q97.18 16.39 96.88 16.87Q96.58 17.34 96.04 17.62L96.04 17.62Q96.77 17.87 97.17 18.41Q97.58 18.94 97.58 19.70L97.58 19.70Q97.58 20.80 96.69 21.40Q95.80 22 94.13 22L94.13 22ZM91.94 18.58L91.94 20.28L93.94 20.28Q95.18 20.28 95.18 19.43L95.18 19.43Q95.18 18.58 93.94 18.58L93.94 18.58L91.94 18.58ZM91.94 15.31L91.94 16.94L93.57 16.94Q94.77 16.94 94.77 16.12L94.77 16.12Q94.77 15.31 93.57 15.31L93.57 15.31L91.94 15.31ZM109.04 22L102.30 22L102.30 13.60L108.89 13.60L108.89 15.44L104.65 15.44L104.65 16.85L108.38 16.85L108.38 18.63L104.65 18.63L104.65 20.17L109.04 20.17L109.04 22ZM120.59 22L113.85 22L113.85 13.60L120.44 13.60L120.44 15.44L116.20 15.44L116.20 16.85L119.93 16.85L119.93 18.63L116.20 18.63L116.20 20.17L120.59 20.17L120.59 22ZM127.77 22L125.39 22L125.39 13.60L129.24 13.60Q130.38 13.60 131.22 13.98Q132.06 14.35 132.51 15.06Q132.97 15.76 132.97 16.71L132.97 16.71Q132.97 17.62 132.54 18.30Q132.12 18.98 131.32 19.36L131.32 19.36L133.13 22L130.59 22L129.07 19.77L127.77 19.77L127.77 22ZM127.77 15.47L127.77 17.93L129.09 17.93Q129.82 17.93 130.20 17.61Q130.57 17.29 130.57 16.71L130.57 16.71Q130.57 16.12 130.20 15.79Q129.82 15.47 129.09 15.47L129.09 15.47L127.77 15.47ZM137.17 21.24L137.17 21.24L137.95 19.49Q138.51 19.86 139.26 20.09Q140.00 20.32 140.72 20.32L140.72 20.32Q142.09 20.32 142.09 19.64L142.09 19.64Q142.09 19.28 141.70 19.11Q141.31 18.93 140.45 18.74L140.45 18.74Q139.50 18.53 138.86 18.30Q138.23 18.06 137.77 17.55Q137.32 17.03 137.32 16.16L137.32 16.16Q137.32 15.39 137.74 14.77Q138.16 14.15 138.99 13.79Q139.83 13.43 141.03 13.43L141.03 13.43Q141.86 13.43 142.67 13.62Q143.47 13.80 144.09 14.17L144.09 14.17L143.35 15.93Q142.15 15.28 141.02 15.28L141.02 15.28Q140.31 15.28 139.99 15.49Q139.67 15.70 139.67 16.04L139.67 16.04Q139.67 16.37 140.05 16.54Q140.44 16.71 141.29 16.89L141.29 16.89Q142.25 17.10 142.88 17.33Q143.51 17.56 143.97 18.07Q144.43 18.58 144.43 19.46L144.43 19.46Q144.43 20.21 144.01 20.83Q143.59 21.44 142.75 21.80Q141.91 22.17 140.71 22.17L140.71 22.17Q139.69 22.17 138.73 21.92Q137.77 21.67 137.17 21.24Z" fill="#000000" x="88.4"/></svg>